# xmcd
#
# Track frame offsets: 
#        150
#        18975
#        39822
#        62075
#        77685
#        96610
#        114905
#        132075
#        151920
#        169800
#        184610
#
# Disc length: 2650 seconds
#
# Revision: 0
# Processed by: cddbd v1.5.2PL0 Copyright (c) Steve Scherf et al.
# Submitted via: ExactAudioCopy v1.3
#
DISCID=7f0a580b
DTITLE=Bob Harrisson - Chevalier
DYEAR=1999
DGENRE=Quebecois
TTITLE0=Life
TTITLE1=Caroline
TTITLE2=Un chat sans gorge
TTITLE3=Destinée
TTITLE4=La Reine du Grand Café
TTITLE5=Chevalier blues
TTITLE6=L'oeil dans la nuit
TTITLE7=Ayoye
TTITLE8=Encore
TTITLE9=If I could
TTITLE10=Éternité
EXTD=
EXTT0=
EXTT1=
EXTT2=
EXTT3=
EXTT4=
EXTT5=
EXTT6=
EXTT7=
EXTT8=
EXTT9=
EXTT10=
PLAYORDER=
